<svg version="1.2" xmlns="http://www.w3.org/2000/svg" viewBox="0 0 214 279" width="214" height="279">
	<title>ferrari-svg</title>
	<style>
		.s0 { fill: #231f20 } 
		.s1 { fill: #fff200 } 
		.s2 { fill: #ed1c24 } 
		.s3 { fill: #009a4e } 
		.s4 { fill: #ffffff } 
	</style>
	<path id="Layer" class="s0" d="m108 29.5c-62.5 0-99.8 22.1-99.8 22.1l0.8 50.3c0 23.1 7.5 121.4 99 174.9 91.5-53.5 99-151.8 99-174.9l0.7-50.3c0 0-37.2-22.1-99.7-22.1z"/>
	<path id="Layer" class="s1" d="m204 55.2c0 0-32.5-20.7-96-20.7-63.5 0-96 20.7-96 20.7l1 46.7c0 18.3 3.5 116.3 95 169.5 91.5-53.2 95-151.2 95-169.5z"/>
	<path id="Layer" class="s2" d="m208 35.2l-100-17-100 17 0.2 16.8c0 0 50.3-21.8 99.8-21.8 49.5 0 99.7 21.8 99.7 21.8z"/>
	<path id="Layer" class="s3" d="m8 30.2v-6l100-19 100 19v6l-100-18.5z"/>
	<path id="Layer" fill-rule="evenodd" class="s0" d="m101.1 153.4c0-0.2 1.5 0.8 2.3 1.2 1.6 1 2.3 1.6 3.8 2.7q0.3 0.2 0.7 0.5 0.3 0.3 0.7 0.6 0.3 0.3 0.7 0.5 0.3 0.3 0.7 0.6c1.4 1.2 2.1 2.3 2.5 2 0.5-0.6-0.9-2.5-2.2-3.6-1.2-1-2.5-1.8-3.5-2.5-1.2-0.8-1.3-1-3.2-2.3-2.1-1.3-3.8-3-3.8-3l-2-1.6-3.1-2.6-3.4-3.2-2.7-2.9c0 0-2-2.5-2.3-2.9-0.3-0.5-1.3-2-2.1-3.3-0.7-1.2-2-3-2.2-3.2-0.7-0.9-2.4-0.5-4.3-1.7-2.4-1.4-3-2.6-3-2.6 0 0-0.1-0.2-0.1-0.3-0.1-0.1-0.3-0.3-0.3-0.3l-1.3-0.8-0.7-0.5c0 0-0.5-0.4-1.2-0.7-0.7-0.3-2.2-1.2-2.2-1.2l-2.7-1.7c0 0-1.1-0.9-1.4-1.2-0.4-0.3-1-0.6-1-0.6 0 0-0.5-0.3-0.6-0.3-0.1 0-0.7 0-0.7 0 0 0-0.5-0.2-1 0.5-0.6 0.6-0.5 0.3 0.4 3.8 0.4 1.4 0.3 6.3 0.7 7.8 0.5 1.9 1.8 4.4 1.9 4.6 0.2 0.3 0.3 1.4 0.3 1.4 0 0-0.1 0.9 0 1.4 0.4 2.5 4.1 0.9 4.9 4.4 0.8 3.4-0.4 6.8-0.4 6.8 0 0-0.8 1.7-2 2-1.1 0.2-2.8-2.2-4.1-4.3-1.2-1.9-2.2-4.5-2.6-5.4-0.3-0.8-0.5-1-0.8-1.6-0.6-0.9-1.1-0.7-1.7-2.1-0.6-1.4 0-2-0.3-3.2-0.2-0.7-0.3-0.7-0.5-1.7-0.3-1-0.5-4.1-0.5-4.1l-0.4-2.8c0 0-0.2-1.3-0.3-2.1-0.7-2.9-0.9-5.7-0.9-5.7l-0.1-1.1v-1.2c0 0-0.1-0.6 0.1-1.1 0.1-0.6 0.4-1.1 0.4-1.1 0 0 0.6-1 0.7-1.2 0.1-0.2 1.2-1.6 1.2-1.6 0 0 0.6-0.5 1.7-1.1 1-0.7 1.9-0.6 1.9-0.6 0 0 0.2 0 2 0.2 1.8 0.2 5.5 1.2 6.4 1.4 1 0.3 2 0.7 2.8 1.1 2 1.1 2.6 0.6 1-0.7-1.1-0.8-1.4-1.2-2.3-2-0.7-0.7-1.3-1.2-1.9-1.8-0.5-0.6-2.1-3-2.1-3l-1-1.4c0 0-0.5-0.6-0.6-0.7q-0.1 0-0.1 0-0.1-0.1-0.1-0.1-0.1 0-0.1-0.1 0 0-0.1 0c0-0.1-0.6 0-1.3-0.1-0.7-0.2-1 0.8-1 0.8 0 0-1.5 2.7-3 4.4-2.4 2.7-4.1 4.6-5 6.1-1.3 2-1 4.2-1.7 5.2-0.3 0.6-0.5 0.7-0.8 1.2-0.6 1.6 1.7 2.5 1.2 4.2-0.8 2.8-7.4 5.6-8.2 5.1-0.9-0.5-0.2-4.2 0.1-5.5 0.3-1.2 1.2-3 1.3-3.1 0.1-0.1 0.3-0.5 0.4-0.8 0-0.4 0.1-1.2 0.1-1.7 0.1-0.4 0.2-1.2 0.2-1.2 0 0 0.1-0.1 0.6-1.4 0.6-1.2 2.7-4.1 4.3-6.9 1-1.9 1.4-3 2.4-4.8 0.9-1.7 2.5-4.2 2.5-4.2 0 0 0.7-1.3 1-1.8 0.3-0.5 1-1.5 1.6-2.4 0.6-0.9 0.8-1.6 1.6-2.4 0.7-0.6 1.2-0.9 2.1-1.2 1.3-0.5 2.2-0.2 3.5 0.1 1.5 0.4 2.4 1.1 3.3 1.8q0.3 0.2 0.5 0.4 0.2 0.2 0.4 0.4 0.2 0.2 0.4 0.4 0.2 0.2 0.3 0.5l0.5 0.6 0.3 0.2 0.8 0.5 2 1.3c0 0 4.6 3.2 4.9 3.3 0.2 0.2 1 0.9 1.2 0.9 0.2 0.1 1.4-1.2 3.8-2.9 2.8-2 3.8-1.8 4.7-2.3 1-0.5 1.3-0.9 2.1-1.7 1-1.1 1.1-1.6 2.3-3.1 1.2-1.6 2.4-2.4 2.4-2.4 0 0 0.2-0.2 2.4-2.7 2.2-2.5 3.2-4.4 3.2-4.4l1.2-2.4c0 0 1.7-3.8 2.3-5.3 0.6-1.5 0.6-2 0.6-2 0 0 0.1-0.4-0.4-1.1-0.4-0.8-0.9-0.4-1.7-0.3-1.6 0.4-2.6 0-4.2-0.3-1.5-0.3-2.3-0.7-3.8-1-1.5-0.2-2.4-0.5-3.9-0.3q-0.1 0-0.2 0-0.1 0-0.3 0.1-0.1 0-0.2 0-0.1 0-0.2 0.1c-0.9 0.3-1.1 0.3-1.7 0.7-0.8 0.3-1.3 0.5-2.1 0.5-0.5 0-0.9 0-1.4-0.2-0.4-0.1-0.6-0.2-0.9-0.5q0-0.1-0.1-0.1 0-0.1-0.1-0.1 0-0.1-0.1-0.1 0-0.1-0.1-0.2c0-0.1 0-0.1 0.1-0.4 0.2-0.2 0.4-0.3 0.4-0.3l0.7-0.2c0 0 1-0.2 1-0.2 0.1-0.1 1.1-0.4 1.5-0.5 0.4-0.1 0.8-0.4 0.8-0.4 0 0 0.3-0.4 0.2-0.6-0.1-0.2-0.7-0.3-0.7-0.3 0 0-0.8 0.3-0.9 0.3l-1.3 0.4c0 0-1 0.3-1.7 0.4-0.8 0.2-1.9 0.3-1.9 0.3l-0.3-0.1c0 0-0.4-0.2-0.4-0.5-0.1-0.2-0.1-0.4-0.1-0.7-0.2-0.9-0.4-1.5-0.2-2.5 0.1-0.3 0.2-0.6 0.4-0.9 0.1-0.3 0.2-0.5 0.4-0.8l0.6-1 1.1-1.7q0.2-0.1 0.3-0.2 0.1-0.1 0.3-0.2 0.1-0.1 0.3-0.2 0.1-0.1 0.3-0.2c0.7-0.4 1.1-0.5 2-0.6 0.9-0.1 1-0.1 2.3-0.4 1.2-0.3 2.1-0.8 2.1-0.8 0 0 3-1.1 4.8-2 2-0.9 2.8-1.9 4.8-2.7q0.3-0.1 0.5-0.2 0.3-0.1 0.6-0.2 0.3-0.1 0.5-0.2 0.3 0 0.6-0.1 0 0 0.1-0.1 0 0 0 0 0-0.1 0.1-0.1 0 0 0-0.1c0.1-0.3-0.4-0.4-0.8-0.4-0.2 0-0.9 0.3-1.1 0-0.1-0.3 0.6-0.4 0.6-0.4 0 0 0.4-0.2 0.4-0.4 0-0.3-0.5-0.1-0.7-0.1-1.2-0.1-1.3-0.4-2.1-0.6-1-0.2-1.5-0.5-2.5-0.5-0.8-0.1-1.7 0.1-2.2 0.3-0.5 0.1-0.6-0.4-0.3-0.5 1.5-0.8 1.5-0.8 2.6-0.9 0.6 0 1.4 0.1 1.5 0.2 0.1 0 1.3 0 1.6-0.3 0.3-0.3-1-0.3-1.6-0.6-0.5-0.2-1.4-0.2-1.4-0.6 0-0.4 0.5-0.2 0.8-0.2 0.3-0.1 0.5-0.1 0.9-0.2 0.7-0.1 0.7-0.1 1.7-0.2 1-0.1 2.5 0.3 2.5 0.3 0 0 1.5 0.7 2.2 1 0.7 0.4 1.6 0.5 1.6 0.5 0 0 1.1 0.2 1.9-0.3 0.8-0.5 0.3-0.8 0-1.3-0.2-0.4-0.6-1-0.1-2.2 0.5-1 0.7-2.2 0.9-2.3 0.1-0.1 0.8 0.8 1.2 1.1 1.4 1.4 3.4 2.1 5.2 5 0.1 0.2 0.8-0.2 3 0.1 2.1 0.4 3.9 2.7 4.4 3.2 0.5 0.5 1.1 0.5 1.1 0.5l1 0.2h3.7c0 0 1.7-0.3 2.7 0.1 0.7 0.2 2.9 1.7 1.9 2.3-0.7 0.4-1.4-0.5-2.1-0.5-0.7-0.1-1.1 0.1-1.7 0.3-1.5 0.3-4.6 1.3-3.5 1.6 0.1 0.1 0.3 0.1 0.3 0.1l0.5 0.1c0 0 1.4 0.3 2.2 0.6 1.3 0.5 1.8 1.1 3 1.7 0.6 0.4 0.9 0.8 1.6 1 0.7 0.2 1.1 0 1.8 0.1 0.9 0.2 1.3 0.3 2.2 0.7 1.1 0.6 1.6 1.3 2.7 2.1 0.5 0.3 0.9 0.4 1.3 0.9 0.1 0.1 0.2 0.2 0.2 0.3 0.2 0.5-0.7 0.2-1.2 0.2-0.6-0.1-0.8-0.4-1.3-0.6-0.7-0.4-1.1-0.8-1.9-0.9-0.6-0.1-0.9 0-1.6 0-0.5 0-0.8 0.1-1.4 0.1-1 0-1.6-0.1-2.6-0.3-1.1-0.2-1.6-0.6-2.7-0.8-1.2-0.3-3.4-1.3-3.2-0.3 0.1 0.5 1.3 0.9 1.3 0.9 0 0 0.8 0.5 1.5 0.8 0.8 0.3 1.2 0.8 1.2 0.8l0.5 0.4c0 0 0.6 0.7 1.2 1.6 0.7 0.8 2 0.8 2 0.8 0 0 0.7 0 2.3 0.3 1.6 0.3 3.2 1.3 3.2 1.3 0 0 1.2 0.8 1.9 1.7 0.8 0.8 0.3 1.3 0.3 1.4-0.1 0-0.1 0-0.2 0-0.1 0.1-1-1-1-1l-0.6-0.6c0 0-0.6-0.4-1.4-0.7-0.8-0.2-1.1 0-1.1 0 0 0-1.7 0.4-3.2 0.4-1.5 0-2.2-0.6-2.2-0.6l-1-0.7c0 0-1.4-1.3-1.4-0.7-0.1 0.5 0.6 0.9 0.6 0.9 0 0 0.4 0.5 0.7 0.8 0.6 0.5 0.8 0.8 1.5 1.4 0.6 0.6 1.1 0.6 1.1 0.6 0 0 0.3 0.1 0.4 0.1 0.2 0 0.4 0.1 0.4 0.1 0 0 0.2 0.1 1.2 0.5 1.1 0.4 2.1 1.3 2.1 1.3 0 0 0.1 0.1 0.3 0.1 0.2 0 0.5 0.2 0.5 0.2 0.1 0 0.4 0 1 0.1 0.6 0.1 0.3 0.5 0.3 0.5l-0.1 0.1-0.4 0.3c0 0-0.7 0.2-1.1 0.2-0.4 0-1-0.2-1-0.2l-1.4-0.5c0 0-1.3-0.3-1.6-0.4q-0.2 0-0.4-0.1-0.2 0-0.4 0-0.2-0.1-0.4-0.1-0.2-0.1-0.4-0.1-0.2 0-0.3-0.1-0.1 0-0.2-0.1-0.1 0-0.3-0.1-0.1 0-0.2-0.1c-0.2 0-0.5-0.1-1.2-0.5-0.7-0.3-1-0.7-1.9-1-0.8-0.3-1.4-0.3-2.1 0.1-1.1 0.8 1.8 1 3.2 1.7 2.1 1 3.3 1.8 3.8 2.9 0.5 1.1 1.1 1.6 1.1 1.6 0 0 1.5 0.7 2.1 1.5 0.4 0.4 0.5 0.8 0.8 1.2 0.8 1 2.4 0.9 2.7 1.7 0.3 0.8-1.2 0.5-2.1 0.4-1.5-0.2-1.8-1.5-3.2-2.1-0.8-0.3-1.3-0.3-2.1-0.6-1.5-0.5-2.1-1.1-3.6-1.5-0.9-0.3-2.5-1.5-2.3-0.6 0 0.2 0.2 0.4 0.2 0.5 0.1 0.2 0.5 0.6 0.5 0.6 0 0 0.5 0.7 0.7 0.9 0.2 0.1 1.1 0.9 2.5 1.6 1.3 0.7 2.5 2.1 2.5 2.1 0 0 0.4 0.6 0.6 1 0.2 0.5 0.1 0.6 0.4 1.2 0.3 0.7 0.4 0.8 0.8 1.2 1 0.9 2 0.7 3.3 1.2 0.3 0.2 0.3 0.2 0.7 0.6 0.4 0.4 0 0.6 0 0.6 0 0-1.4 0.3-2.3 0.3-1.2-0.1-1.7-0.5-2.9-1-1.1-0.6-1.7-1.6-1.9-1.7-0.1-0.1-0.3-0.4-0.6-0.5-0.2-0.2-0.7-0.3-1.2-0.4-0.5-0.2-0.8-0.2-1.3-0.3-0.7-0.2-1.5-0.5-1.8-0.6-0.3-0.1-1.1-0.3-1.6 0-1.1 0.7 1.7 1.1 2.6 2 0.4 0.5 0.6 0.8 1 1.3 0.3 0.4 0.4 0.7 0.8 1 0.3 0.2 0.8 0.4 0.8 0.4 0 0 0.7 0.3 1.7 0.8 0.9 0.6 2.1 2.1 2.1 2.1l0.7 1 0.4 0.6 0.1 0.3 0.1 0.4c0 0 0.5 0.6 0.9 0.8 0.4 0.3 0.3 0.5 0.3 0.5 0 0 0 0.1-0.3 0.2-0.2 0.2-0.4 0.1-0.7 0-0.4-0.2-0.6-0.5-1-0.8-0.3-0.2-0.7-0.9-1.3-1.2-0.5-0.4-1.2-0.5-1.4-0.6-0.3-0.1-0.9-0.5-1.2-0.6-0.3-0.1-0.9-0.4-0.9-0.4 0 0-1.4-0.7-2.1-0.9-0.7-0.2-0.2 0.2-0.2 0.2 0 0 0.6 1 1.2 1.4 0.8 0.6 2 1 1.6 1.5-0.2 0.3-0.6 0.1-0.9 0.1-0.6-0.1-1.4-0.8-1.4-0.8 0 0-0.3-0.2-1.6-0.6-1.4-0.5-0.9 0.3-0.6 0.7 0.3 0.4 0.8 0.6 0.8 0.6l0.9 0.4 0.4 0.1c0 0 0.3 0.1 1.6 0.4 1.2 0.3 1.8 0.8 1.8 0.8 0 0 0.7 0.7 1.6 1.3 0.9 0.7 1.8 0.9 2.3 0.9 0.5 0.1 0.5 0.4 0.5 0.4 0 0 0.1 0.4 0.1 0.5-0.1 0.1-0.2 0.2-0.3 0.2-0.1 0-0.1 0-0.3 0.1-0.1 0.1-0.6 0.1-0.6 0.1 0 0-1.4 0-2.5-0.3-1-0.2-1.9-1-2-1-0.1-0.1-1.1-0.6-1.8-0.8-0.7-0.2-1.7-0.1-1.8-0.1-0.1 0-0.5 0.1-1.1 0.3-0.7 0.2 0.1 0.4 0.1 0.4h0.5l1 0.1c0 0 1.2 0.2 2.1 0.5 1 0.3 1.6 1 2.2 1.7q0.2 0.1 0.3 0.3 0.2 0.1 0.3 0.2 0.2 0.2 0.4 0.3 0.1 0.1 0.3 0.2l0.5 0.3 0.3 0.2 0.1 0.2c0 0-0.1 0.1-0.1 0.2-0.1 0.1-0.2 0.2-0.2 0.2 0 0-0.2 0-0.4 0-0.1 0-0.8-0.4-1.3-0.6-0.6-0.3-0.8-0.5-1.4-0.7-0.5-0.1-1.2-0.1-1.3-0.1-0.2 0.1-1.3 0.2-2.1 0.3q-0.4 0-0.7 0-0.3 0-0.6 0-0.4 0-0.7 0-0.3 0-0.6-0.1c-1.5-0.1-3.4-1.3-3.6-1-0.5 0.7 1 0.9 1.7 1.3 1 0.6 2.8 1.1 2.8 1.1 0 0 1.3 0.3 2 0.6 1.6 0.8 2.1 1.9 3.4 3.1 0.8 0.7 1.3 1 2.3 1.1 0.8 0.1 0.8 0 2.2-0.2 1.3-0.3 2.1-1.6 2.5-1.1 0.1 0.1 0 0.2 0 0.3 0 0.1-0.1 0.4-0.1 0.4 0 0-0.2 0.2-0.4 0.4-0.3 0.3-1.2 0.8-1.6 1-0.5 0.1-1.7 0.5-3.2 0.4-1.4 0-3.5-1.1-3.5-1.1l-1.5-0.7c0 0-0.7-0.3-1.2-0.5-1.2-0.4-2-0.4-3.3-0.7-0.7-0.2-1.3-0.5-2-0.6-0.7-0.2-0.3 0.1-0.2 0.2 0.3 0.5 0.8 0.6 1.3 0.9 0.8 0.4 1.3 0.3 2.1 0.6 0.9 0.4 1.6 0.9 2.1 1.2 0.5 0.3 0.8 0.6 1.3 1.1l1.5 1.3c0 0 0.4 0.3 0.5 0.5 0 0.1 0.2 0.4 0.1 0.9-0.1 0.6-0.5 0.2-0.5 0.2l-0.4-0.3-0.5-0.4-0.6-0.5c0 0-0.6-0.5-1.6-1-0.9-0.5-2.1-0.7-2.1-0.7 0 0-1.1-0.1-1 0.2 0 0.3 0.3 0.4 1.1 0.6 0.8 0.2 1.4 0.6 1.4 0.6 0 0 0.8 0.6 1.4 1.3 0.6 0.7 0.8 1.4 0.8 1.4 0 0 0.3 0.6 1.1 1.3 0.8 0.8 1.2 0.5 1.1 0.9 0 0.4-0.4 0.4-0.4 0.4 0 0-0.2 0-0.2 0-0.1 0-0.3-0.1-0.6-0.2-0.2-0.1-1-0.6-1-0.6 0 0-1.3-1.1-1.4-1.2-0.2-0.1-1.4-1-1.4-1 0 0-0.7-0.5-1.2-0.7q-0.2-0.1-0.4-0.2-0.2-0.1-0.4-0.2-0.2-0.1-0.4-0.1-0.2-0.1-0.4-0.2c-0.4-0.1-1.1-0.2-1.1-0.2 0 0-0.9-0.1-1.4-0.3-0.9-0.3-1.8-1.2-1.9-1.2-0.1-0.1-0.9-0.3-1.1-0.3-0.1 0-0.5 1.5-0.5 2.3-0.4 3.5 0.5 5.9 2 9.1 2.1 4.7 7.9 10.5 7.9 10.5 0 0 1.5 0.9 2.1 1.4 1.8 1.3 4.7 3.3 7.2 5.8 2.2 2.2 5.2 6.1 5.2 6.1 0 0 1.6 2.4 2.4 4 1 2.1 1.7 5.2 1.7 5.2 0 0 0.1 0.5 0.2 0.6 0 0.1 0.2 0.3 0.3 0.3h1c0.1 0 1.3-0.1 2-0.3 0.8-0.1 2.6-1 3.8-1.6 1.2-0.6 2.6-1.8 2.6-1.8 0 0 0.3-0.3 1.7-1.8 1.4-1.6 2.3-3.9 2.6-4.8 0.4-0.9 0.7-2.6 0.9-5.4 0.2-2.9-0.2-6-0.2-6 0 0-0.5-4.2-0.9-5.7-0.3-1.4-1-3.8-1-3.8 0 0-0.6-2.1-0.8-3.4-0.1-1.3-0.2-3.5-0.2-3.5 0 0 0-1.3 0.5-3.7 0.4-2.5 1.9-4.9 1.9-4.9 0 0 0.4-0.8 2-2.8 1.7-1.9 2.2-2.3 3.8-3.4 1.3-1 3-2.4 3.5-2.1 0.6 0.4-0.6 1.1-1 1.5-1 1-2.9 2.8-4.4 5.5-1.3 2.3-1.8 3.8-2.2 5.3-0.3 1.5-0.2 3.2-0.1 3.8 0 0.5 0.3 0.3 0.3 0.3 0 0 3.3-2.6 5.1-4.6 1.9-2.1 3.6-5.9 4.2-6 0.5 0 0.7 1 0.6 1.5-0.4 2-0.6 2.2-1.2 3.5-0.7 1.5-1.4 2.2-2.4 3.6-1.1 1.5-1.6 2-2.5 3.9-1.3 2.8-0.5 5-0.5 5 0 0 0.1 1.3 0.7 1.2 1 0 3.1-2.7 4.5-4.9 1.1-1.7 1.5-3.5 2.1-4.5 0.7-0.9 1.2 1.4 0.9 2.8-0.3 1.6-1.1 3-2.8 5.3-1.7 2.2-1.7 4.3-1.7 4.3 0 0-0.2 1-0.3 3.1-0.1 2.1 0.5 5.3 0.5 5.3 0 0 0.5 2.7 0.6 4.7 0.1 2 0 6.6-1.8 10.2-0.8 1.5-2.4 3.5-2.4 3.5 0 0-1.3 1.2-2.3 2-1 0.7-3.5 1.9-3.5 1.9 0 0-1.6 0.6-1.9 0.6-0.2 0.1-0.4 0.3-0.4 0.3l0.2 0.5c0.1 0.1 0.6 1.3 0.6 1.3 0 0 0.5 1.6 0.7 2.9 0.2 1.3-0.1 1.6-0.3 2.7-0.1 0.9-0.6 0.5-0.7 2.4-0.1 1.6 0.7 2.5 0.6 4.3-0.1 0.9-1-1-1.5-1.8-0.9-1.7-0.7-4.3-0.7-5 0-0.6-0.1-1.3-0.3-2.2q-0.5-1.6-1.3-2.5c-0.5-0.7-1-1-1.2-1-0.1 0.1-0.2 0.4-0.2 0.6 0 0.2 0.4 0.8 0.5 0.9 0 0.2 0.7 1.3 0.7 1.3 0 0 0.3 0.9 0.4 2.6 0.1 1.7-0.5 3.9-0.5 3.9 0 0-0.6 2.3-1.4 3.7-0.8 1.6-2.5 3.7-2.5 3.7 0 0-1.3 1.2-2.3 3.1-0.9 1.9-0.1 2.8-0.5 3-0.3 0.3-1.1-1.1-1.3-2-0.2-0.9-0.1-1.3 0.3-2.2 0.3-0.9 1.1-2.3 1.1-2.3l1.1-1.9c0 0 1.4-2.7 1.8-4.6 0.5-1.9 0-4 0-4 0 0-0.1-0.7-0.6-0.7-0.5 0-0.8 0.5-1 1-0.4 1 0.2 0.8-0.4 2.6-0.5 1.4-0.6 1.2-0.9 2-0.3 1-0.4 2-0.4 2.6 0 0.6-0.3 0.3-0.3 0.3 0 0-0.6-1-0.6-2.4 0-0.7 0-1.1 0.1-1.9 0.1-1.2 0.6-3 0.6-3 0 0 0.5-1.8 0.4-3.4-0.1-1.6-0.7-1.9-0.7-1.9 0 0-0.1-0.2-0.8-0.2-0.6 0-0.6 1.2-0.6 1.2 0 0-0.1 1.6-0.4 2.6-0.7 2.8-1.6 4.2-3.3 6.6-1.4 2.1-3.5 3.9-4.5 4.8-1 0.9-4.1 3.1-4.1 3.1l-3.6 2.4c0 0-1.4 1.4-2.1 3.1-0.7 1.7-0.6 3-0.3 4.5 0.4 1.6 1 2.3 1.3 2.7 0.3 0.4 0.8 1.2 1 2 0.1 0.6 0 0.9 0.1 1.5 0 0.5 0.1 0.7 0.1 1.2-0.1 0.8 0.1 1.3-0.4 2-0.3 0.4-1.2 0.9-1.2 0.9 0 0-0.9 0.4-1.5 0.8-6.2 3.7-8.4 6.1-11.9 10.2-1.1 1.4-0.3 1.3-1.5 2.9-0.7 0.9-2.3 0.9-2.9 2-0.8 1.5 1.9 3.1-1.3 4.4-4 1.7-10.9 0.5-11.1 0-0.3-1.5 1.4-3.3 2-3.9 2.8-3.1 5.4-3.2 6.3-5.7 0.2-0.6 0.1-1.1 2.3-2.7 1.6-1.2 7.9-5.9 10.7-9.1 0.9-1.1 1.7-1.8 2.1-3 0.5-1.2-0.4-1.9-0.4-1.9l-1.1-1.9-2.2-3.8c0 0-0.9-2.1-1.4-3.3-0.5-1.1-1.4-4.4-1.4-4.4 0 0-0.7-2.8-0.8-4.7-0.3-3.4 0.2-5.3 1.1-8.6 1.1-4.2 3.7-6 4.8-10.2 0.3-1.2 0.3-3.3-0.3-3.2-0.6 0.1-0.6 1.8-1 2.9-1.7 4.1-3.9 5.9-5.1 10.3-0.9 2.9-1.2 4.6-1.2 7.6 0 1.8 0 1.5 0.4 4.5 0.2 1.1 0.4 1.7 0.8 2.7 0.2 0.8 0.8 2.2 0.8 2.2 0 0 0.9 1.9 1.2 3.3 0.1 0.4 0.2 0.7 0.2 1.2-0.1 0.8 0 0.9-0.3 1.6-0.5 0.9-0.2 1.5-1.8 1.8-1.3 0.3-4.1-0.6-4.1-0.6 0 0-11.3-3.5-18.6-2.5-1.5 0.2-2.2 0.7-3.7 0.7-1.3 0-2-1-3.3-0.6-0.2 0-0.3 0.2-0.6 0.4-1.9 1.3-0.4 3.6-5.5 2.4-3.1-0.7-6.9-2.6-6.2-3.8 0.8-1.6 2-1.9 4.5-2.9 2.6-1 6.6-0.7 7.3-0.8 1-0.1 2.4-0.7 4.1-0.8 2.9 0 3.4 0.3 3.4 0.3l5 0.5 9.5 0.1c0 0 1.7-0.1 2.4-0.3 0.7-0.1 1.3-1.4 1.6-2.1 0.4-0.6 0-1.6 0-1.6l-0.3-0.4-0.9-1.5-1.7-2.8-1.8-3.7c0 0-1.2-2.6-1.9-4.3-0.6-1.7-1-2.6-1.4-4.4-0.5-1.8-0.8-3.2-0.8-4.7-0.1-2.1-0.2-3.7 0.4-5.4zm5.3-110.5c0.9 1.5 1.2 1.7 1.8 2.7 0.4 0.6 0.7 1.2 0.5 1.7-0.2 0.5-0.9 0.1-1.5 0-0.7-0.2-0.9-0.5-1.6-0.8-0.6-0.3-1-0.8-1-1.2-0.1-0.3 0.5-0.7 0.8-1.3 0.2-0.7 0.3-1.7 0.3-1.7 0.3 0 0.5 0.3 0.7 0.6z"/>
	<path id="Layer" fill-rule="evenodd" class="s4" d="m157.3 153.8c0.6-1.5 4.3-3.5 5.7-7.7 0.9-2.5 1-5 1-5l-0.1-4.9c0 0-0.1-0.4-0.1-0.9 0.2-0.6 0.6-0.2 0.6-0.2l0.1 0.3c0 0 0.9 3.8 0.8 6.2-0.1 3.4-0.3 5.8-2.3 8.4-2.4 3.1-6.6 6.3-5.7 3.8zm-14.5 5c0.4 0.9-0.7 6.5-1.9 5.7-0.8-0.4 0.4-1.9 0.4-3.1 0-1-0.2-1.7-0.2-2.5 0-0.8 0.8-1 0.8-1 0.2-0.1 0.5 0.1 0.9 0.9zm-14.9 38.6c0 0.1-0.6 1-1 0.9-0.3 0-0.2-0.5-0.2-0.5 0 0-0.1-0.5 0.4-0.7 0.4-0.2 0.7 0 0.7 0 0 0 0.1 0.2 0.1 0.3zm-13.4 9c0 0 0-0.1 0-0.1 0-0.1 0.2-0.2 0.2-0.2 0 0 0.1-0.2 0.2-0.2 0-0.1 0.1-0.3 0.1-0.3l0.5-0.5 1.1-1.1 1.1-1 1.8-1.7c0 0 0.6-0.7 0.8-0.9 0.2-0.2 0.4-0.4 0.7-0.5 0.3-0.2 0.7-0.4 0.9-0.2 0.1 0.1 0 0.3 0 0.3 0 0-2.1 2.3-3.5 3.7-1.4 1.2-3.7 3-3.7 3 0 0-0.1 0.2-0.3 0.1-0.1-0.1 0.1-0.3 0.1-0.3 0 0 0 0 0-0.1zm-4.2 3.5c0 0-0.6 0.5-0.7 0.5-0.1 0-0.6 0.4-0.7 0.1-0.2-0.2 0.1-0.5 0.1-0.6 0 0 0.4-0.6 0.8-0.8 0.4-0.2 0.7 0 0.7 0 0.2 0.6-0.2 0.8-0.2 0.8zm-7.3 7.5c0 0.3-0.7 0.2-1.1 0.5-0.6 0.4 0.4 1.3-1.1 1.2-0.8 0-0.4-0.8-0.3-0.9 0.1-0.2 0.5-0.7 0.5-0.8 0.4-0.6 0.7-0.6 1.1-0.9 0.4-0.2 0.7 0.4 0.7 0.4 0 0 0.2 0.2 0.2 0.5zm-25.1-31.1c0 0 0 0.4-0.6 0.7-0.6 0.4-0.8 0.2-0.9 0.2-0.1 0-0.7-0.3-0.6-0.6 0.1-0.3 0.9-0.6 0.9-0.6 1.5-0.1 1.2 0.3 1.2 0.3zm12.4-0.5c-0.6 0-0.6-0.2-0.6-0.3 0-0.1 0.1-0.2 0.8-0.2 0.6 0 0.6 0.3 0.6 0.3 0 0.2-0.2 0.3-0.8 0.2zm14.2 0.8c-1.2 0.3-1.7 0.2-2.7 0.2-0.9 0.1-1.3 0.2-2.2 0.2-1.5-0.1-1.6 0.1-3.9-0.6-0.4-0.2-0.8-0.6-0.7-0.9 0.1-0.2 0.5-0.1 0.5-0.1 0 0 2.7 0.5 4.5 0.6 1.2 0 1.9 0.1 3.2 0 0.7 0 0.3 0 1.5 0 0.4 0 0.1 0.5-0.2 0.6zm7.6-2.2c-0.1 0-0.5 0.2-1 0.3-0.4 0.1-0.2-0.3-0.2-0.3 0 0 0.3-0.5 0.7-0.7 0.5-0.3 0.7 0 0.7 0 0.3 0.3-0.1 0.6-0.2 0.7zm-6.9-93.1c0 0 3.2-4.3 4.6-7.3 1-2.1 1.7-5 2.2-5.6 1.2-1.4 0.6 4.1-0.8 6.5-2.3 4-5.5 7-5.5 7-1.1 0.9-0.5-0.6-0.5-0.6zm-12.3 8.2c0 0 2.4-1.6 6.1-1.1 2.3 0.3 4.5 2.3 4.2 2.5-0.3 0.3-0.9 0-1 0-0.1 0-0.6-0.3-0.8-0.4-0.2 0-1.2-0.3-1.2-0.3 0 0-2.2-0.5-3.8-0.4-1.5 0-3 0.6-3 0.6 0 0-0.7 0.3-0.8-0.1-0.2-0.4 0.2-0.7 0.2-0.7zm-13.7 9c0.9-1.6 2.1-2.5 2.5-2.7 1-0.5 0.4 0.4 0.4 0.4 0 0-1.4 1.8-2.1 2.9-1.1 1.5-2.3 3.9-2.6 3.6-0.2-0.2 1.1-2.8 1.8-4.2zm-10.2-6l0.2 0.1 0.3 0.2 0.3 0.2q0.1 0.1 0.2 0.2 0.1 0.1 0.2 0.2 0.1 0.1 0.2 0.2 0.1 0.1 0.2 0.2c0.4 0.4 1.3 1.9 1.1 2.1-0.7 0.7-1-0.2-2.1-1.4-1-1.1-0.8-2-0.8-2 0.1-0.1 0.2 0 0.2 0zm-2.7-8.2c0 0.4-1.1 0.4-1.1 0.4 0 0-1.6 0.3-1.3-0.2 0.3-0.6 1.5-0.8 1.5-0.8 0.8 0.2 1 0.2 0.9 0.6zm-19.2 31.4c0 0.3-0.5 1.1-0.6 1.1-0.1 0-0.5-0.8-0.4-1.1 0.1-0.4 0.2-1.6 0.8-1.4 0.5 0.2 0.3 1 0.2 1.4zm19.7 22.2c0 0 0.2 0.5-0.3 0.8-0.5 0.2-0.8-0.3-0.8-0.3 0 0-1-1.5-0.9-1.8 0.2-0.3 1.3 0.5 1.3 0.5 0.4 0.1 0.7 0.8 0.7 0.8zm-8.3-25.1v0.2c0 0 0 1.5 0.1 2.6 0.1 0.4 0.9 3.9 0.9 3.9 0 0 0.1 0.4-0.2 0.4-0.3 0-0.5-0.5-0.5-0.5 0 0-0.6-1-0.8-1.7-0.2-0.6-0.3-1.7-0.3-1.7 0 0-0.2-1.3-0.2-1.8 0.1-0.7 0.1-1.2 0.2-1.5 0.1-0.3 0.4-0.3 0.4-0.3 0.4 0 0.4 0.4 0.4 0.4zm1.1-11c0 0 0.1 0.4-0.4 1.2-0.6 0.9-1 0.9-1 0.9-0.1-0.1-0.1-0.4 0.3-1.4 0.5-0.9 0.9-0.8 0.9-0.8 0.2 0 0.2 0.1 0.2 0.1zm13.3 9.6c0 0 0.6 0.9-0.5 0.7-1.2-0.2-3.6-2.1-4.5-2.6-1-0.5-2.6-0.7-1.9-1.2 0.1-0.1 0.2-0.2 0.4-0.3 0.1 0 0.8 0.3 0.8 0.3 0.1 0 1.8 0.7 1.8 0.7 0.1 0.1 1 0.5 1.7 0.9 0.7 0.4 1.7 1.1 1.7 1.1zm31.4 27c0.3 1-3.6-2-5.6-3.6-5.5-4.3-12.3-13-11.4-13.7 0.7-0.7 3.4 3.3 7.5 7.7 4.3 4.7 9.3 9.1 9.5 9.6zm19-4c-1 0.8-1.4 0.7-2.1 1.4-0.7 0.9-0.9 3.8-1.6 2.6-0.7-1.2-0.3-2.8 0.9-4.1 1.5-1.7 4.7-1.2 2.8 0.1zm-9-25.8c0.2 2.3 1.2 4.6 3 7.4 2.5 4 6.5 7 6.3 7.2-0.5 0.5-4.5-2.6-5.9-4.4-2.4-2.9-4.2-6-4.8-10-0.1-0.9-0.1-2.1 0.7-2 0.7 0.1 0.7 1.5 0.7 1.8zm-13.7-62.5c1.1-0.9 0.5 0.2 0.5 0.2 0 0-1 1.7-2.5 2.3-1.4 0.6-2.4 1-5.1 1.2-0.4 0-0.2-0.3-0.2-0.3 0 0 3.1-0.8 4.9-1.8 1-0.6 2.1-1.3 2.4-1.6zm19.7-5.1c0.2 0.2 0.7 0.8 0.7 1.1 0.1 0.4-0.9 0-1.3-0.1-0.5-0.1-1.1-0.6-1.1-0.6 0 0-0.2-0.2 0.3-0.4 0.4-0.3 1-0.2 1-0.2 0 0 0.2 0.1 0.4 0.2zm-7.3 15.9c0.2-0.4 0.1 0.7 0.1 0.7 0 0-0.3 1-0.8 1.3-0.7 0.4-2.5 0.9-2.6 0.7-0.1-0.2 2.2-1 3.3-2.7zm-4.7-0.5c0 0-1.1 1.6-1.3 1.8-1.1 0.8-2.4 0.3-2.9 0.4-0.5 0-0.2-0.4-0.2-0.4 0 0 1.4-0.6 2.3-1.1 1.4-0.7 4.1-3.6 3.4-2.2-0.3 0.7-1.3 1.5-1.3 1.5zm5.8 2.6c0.3-0.4-0.1 0.6-0.1 0.6 0 0-0.3 1.1-0.9 1.2-0.8 0.3-3.9 0.3-3.9 0.1-0.1-0.2 3.5-0.5 4.9-1.9zm-54.4 30.4c0 0 0.2 0.8-0.4 1.6-0.7 0.8-3 5-3.5 4.3-0.5-0.6 2.1-4.5 2.7-5.4 0.6-0.9 1-0.7 1-0.7 0.2 0 0.2 0.2 0.2 0.2zm58.4 69.6c-0.5 1.2-0.7 1.6-0.8 2.7-0.2 1.2 0.5 4.6-0.6 3.3-0.4-0.5-0.8-3.2-0.5-4.5 0.6-2.8 2.9-3.6 1.9-1.5zm-10.3-112.4c0.6 0.4 1 1.8 1 1.8 0 0 0.2 0.9-0.2 1.2-0.4 0.4-1-0.2-1.4-0.7-0.4-0.4-0.6-0.6-1.1-0.8-0.7-0.2-1.6 0.5-1.8 0-0.1-0.2 0-0.6 0-0.6 0 0 0.2-0.5 0.9-0.8 0.7-0.4 1.5-0.4 1.5-0.4 0 0 0.5-0.1 1.1 0.3zm-14.3 9.6c0 0.6-1 1-1 1 0 0-0.3 0.1-0.4-0.4-0.1-0.6 0.4-0.7 0.4-0.7 0 0 0.9-0.5 1 0.1zm-6.6-2.1c0 0.7-0.6 0.4-0.9 0.6-0.3 0.2-0.5 0.3-0.7 0.5-0.5 0.3-0.8 1.1-1.1 0.9-0.3-0.3-0.2-1.1-0.2-1.1 0 0 0.3-0.7 0.6-1.4 0.4-0.6 0.9-0.6 0.9-0.6 0.5-0.1 1.3 0.3 1.4 1.1zm21.9-9c0.4 0.3 0.8 1.4 0.8 1.4 0 0 0 0.1-0.3 0.1-0.3 0-0.3-0.4-0.5-0.6-0.3-0.3-0.5-0.3-0.9-0.5-0.4-0.2-1 0.1-1.1-0.3 0-0.5 1.2-0.3 1.2-0.3 0 0 0.3 0 0.8 0.2zm13.9 4.5c1 0 1.9 0 2.7 0.2 0.6 0.2 0.7 0.5 0.4 0.6-0.3 0-0.5 0-0.7 0-0.7 0-0.7-0.3-1.6 0.2-0.9 0.5-0.3 0.3-1.6 0.7-1.3 0.5-1-0.8-1-0.8 0 0 0.1-0.2 0.3-0.8 0.2-0.7 0.9-0.1 1.5-0.1zm-0.8-4.8q0 0.1 0.1 0.1 0 0 0.1 0.1 0 0 0.1 0c0.2 0.2 0.7 0.8 0.7 1.1 0.1 0.4-0.9-0.1-1.3-0.1-0.5-0.1-1.1-0.6-1.1-0.6 0 0-0.2-0.2 0.3-0.5 0.4-0.2 1-0.1 1-0.1q0 0 0.1 0zm2.6 9.3c0.2 0.2 0.8 0.7 0.9 1 0 0.3-1.1 0-1.5-0.1-0.5-0.1-1.2-0.5-1.2-0.5 0 0-0.1-0.2 0.3-0.5 0.5-0.2 1.1-0.1 1.1-0.1 0 0 0.2 0 0.4 0.2zm0.3 3.3c0.2 0.2 0.8 0.9 0.8 1.2 0.1 0.4-1-0.1-1.6-0.2-0.5 0-1.2-0.6-1.2-0.6 0 0-0.1-0.2 0.3-0.5 0.5-0.3 1.2-0.1 1.2-0.1 0 0 0.2 0 0.5 0.2zm0.3 3.3c0.2 0.2 0.9 0.9 0.9 1.3 0.1 0.4-1.1-0.1-1.7-0.2-0.5-0.1-1.3-0.7-1.3-0.7 0 0-0.1-0.2 0.4-0.5 0.5-0.4 1.2-0.2 1.2-0.2 0 0 0.3 0.1 0.5 0.3zm-0.4 3.7q0 0.1 0.1 0.1 0.1 0 0.1 0.1 0.1 0 0.1 0c0.3 0.3 0.9 1 1 1.4 0 0.4-1.2-0.1-1.7-0.2-0.6-0.1-1.4-0.7-1.4-0.7 0 0-0.1-0.2 0.4-0.6 0.5-0.3 1.2-0.1 1.2-0.1q0.1 0 0.2 0zm-0.2 8c0.2 0.2 0.9 0.9 0.9 1.3 0.1 0.4-1.1-0.1-1.7-0.2-0.5 0-1.3-0.6-1.3-0.6 0 0-0.2-0.3 0.3-0.6 0.6-0.3 1.3-0.2 1.3-0.2 0 0 0.3 0.1 0.5 0.3zm0.6-3.8c0.2 0.2 1 1 1.1 1.5 0 0.5-1.4-0.1-2-0.2-0.7-0.1-1.5-0.8-1.5-0.8 0 0-0.2-0.3 0.4-0.7 0.5-0.3 1.4-0.1 1.4-0.1 0 0 0.3 0 0.6 0.3zm-1.1 7.2c0.2 0.2 0.8 0.8 0.8 1.2 0 0.3-0.9-0.1-1.4-0.2-0.5-0.1-1.1-0.6-1.1-0.6 0 0-0.1-0.2 0.3-0.4 0.4-0.3 1-0.2 1-0.2 0 0 0.2 0.1 0.4 0.2zm-0.9 3.2q0.1 0 0.1 0.1 0.1 0 0.1 0 0 0 0.1 0.1c0.1 0.1 0.6 0.6 0.6 0.9 0.1 0.3-0.8-0.1-1.1-0.1-0.4-0.1-0.9-0.5-0.9-0.5 0 0-0.1-0.2 0.2-0.4 0.3-0.2 0.9-0.1 0.9-0.1q0 0 0 0zm-0.5 3.2c0.2 0.1 0.6 0.6 0.6 0.8 0 0.3-0.7 0-1-0.1-0.4 0-0.9-0.4-0.9-0.4 0 0 0-0.2 0.3-0.4 0.3-0.2 0.7 0 0.7 0 0 0 0.2 0 0.3 0.1zm-0.7 2.5c0.1 0.1 0.6 0.6 0.6 0.8 0 0.3-0.7 0-1.1-0.1-0.3 0-0.8-0.4-0.8-0.4 0 0-0.1-0.2 0.2-0.4 0.3-0.1 0.8 0 0.8 0 0 0 0.2 0 0.3 0.1zm-1.1 2.8q0 0 0.1 0 0 0 0 0.1 0 0 0.1 0c0.1 0.1 0.4 0.5 0.4 0.7 0.1 0.2-0.5-0.1-0.8-0.1-0.3-0.1-0.7-0.4-0.7-0.4 0 0 0-0.1 0.2-0.3 0.3-0.1 0.6 0 0.6 0q0.1 0 0.1 0zm-1.1 2.7q0.1 0 0.1 0 0 0.1 0 0.1 0.1 0 0.1 0c0.1 0.1 0.4 0.4 0.4 0.6 0 0.2-0.5-0.1-0.7-0.1-0.3 0-0.6-0.3-0.6-0.3 0 0-0.1-0.1 0.2-0.2 0.2-0.2 0.5-0.1 0.5-0.1q0 0 0 0zm-0.9 2.7c0.1 0.1 0.4 0.4 0.4 0.6 0 0.2-0.5-0.1-0.7-0.1-0.2 0-0.6-0.3-0.6-0.3 0 0 0-0.1 0.2-0.2 0.2-0.2 0.5-0.1 0.5-0.1 0 0 0.1 0 0.2 0.1zm-69.1 12c0.4 0.3-0.4 1.8-0.4 1.8 0 0-0.7 1.5-1 0.9-0.3-0.6 0.3-1.6 0.3-1.6 0.7-0.6 0.8-1.4 1.1-1.1z"/>
	<path id="Layer" class="s0" d="m89.6 208.1c0 0-0.4-0.5-0.8-0.2-0.4 0.4-0.9 1-1.7 1-0.9-0.1-1.3-0.2-1.8-0.4-0.5-0.3-1.2-0.6-1.2-0.6 0 0-1.8-0.7-3.3-0.7-1.6-0.1-4.1 0.6-5.3 1.9-1.2 1.3-1.5 2.7-1.5 2.7 0 0-0.4 2.3 0.3 3.4 0.7 1.1 1.4 2.3 3.1 3.4 1.7 1 2.4 1.4 2.4 1.4l3 1.3 2.7 1c0 0 3.9 1.2 4.4 4.2 0.4 2.9-1.3 6.8-6.7 7.1-5.4 0.4-7.9-2.2-8.8-3.9-0.8-1.6-0.3-3-0.3-3l0.2-0.5 0.2-0.1c0 0 0.8 0.6 1.6 0.5 0.9-0.2 2.3-1.1 2-2.7-0.3-1.6-1.7-2-2.4-1.9-0.7 0.1-3.7 0.8-3.8 5.3 0 4.4 4 6.8 4 6.8 0 0 2.9 1.7 6.1 1.6 3.2-0.1 5.9-1.4 5.9-1.4 0 0 4.8-2.4 4.9-7.6 0.1-5.2-3.2-7-3.2-7 0 0-1.2-0.8-2.2-1.3q-0.5-0.3-1-0.5-0.4-0.2-0.9-0.4-0.4-0.2-0.9-0.4-0.4-0.3-0.9-0.5l-2.6-1.2-1.6-0.9-0.9-0.6c0 0-2.1-1.6-1-3.5 1.1-1.8 4.4-1.1 4.4-1.1 0 0 2.6 0.5 4.6 2 1.9 1.4 3.1 3.1 3.1 3.1l0.8 1.4 0.1 0.1 0.7-0.2c0 0-1.1-3.1-1.3-4.4-0.2-1.2-0.4-3.2-0.4-3.2zm31.5 17.5c0 0 0.7 0.8 1.7 0.8 0.9 0 2.3-0.7 2.3-2.4 0-1.7-1.8-2.2-1.8-2.2 0 0-2.6-0.6-3.9 2.1-1.3 2.7-0.6 5-0.6 5 0 0 0.6 3.6 4.4 5.7 3.8 2.1 7.9 0.6 7.9 0.6 0 0 3.1-1.1 5.7-4 2.7-3 3.9-6.6 3.9-6.6l1-2.3 1.1 0.1c0 0 1.5 0.1 2.6-0.8 1.1-0.9 1.8-2.1 1.8-2.1l0.2-0.4-0.7-0.3c0 0-0.8 1-2 1.2-1.1 0.1-2.2-0.1-2.2-0.1l1-2.9c0 0 1.3-2.5 1.6-3.1 0.4-0.6 1.8-2.4 1.8-2.4 0 0 3-0.1 5.9-0.7 2.9-0.6 4.6-1.3 4.6-1.3l3.6-1.5 0.9-0.4-0.3-0.7c0 0-3.2 1.1-7.9 1.7-4.8 0.5-7.8-0.1-7.8-0.1l-5.3-0.8c0 0-1.7-0.3-2.9-0.3-1.3 0-3.9 0.4-3.9 0.4 0 0-2.5 0.6-3.7 1.5-1.2 0.9-3.9 2.9-2.6 6 1.2 3.1 6.4 1.4 7.1-0.9 0 0.1 0.3-0.7 0.3-0.7l0.1-0.4-0.5-0.2-0.5 0.6c0 0-1.9 1.6-3.4 0.6-1.5-1-0.5-2.5-0.3-2.6 0.1-0.2 0.9-1.2 2.8-1.6 2-0.4 4.9 0.3 4.9 0.3l3.1 0.5c0 0 1.8 0.4 1.8 0.4 0.1 0 0.7 0 0.7 0l-1.1 1.3c0 0-1.6 1.5-2.7 3.7-1.1 2.2-1.7 3.4-1.7 3.4l-0.1 0.1c0 0-1.4 0.2-2.3 0.8-0.9 0.5-1.4 1.3-1.4 1.3l-0.5 0.8 0.6 0.4c0 0 0.7-0.7 1.4-0.9 0.8-0.2 1.4 0.1 1.4 0.1 0 0-1.1 2.8-1.7 3.8-0.5 1.1-1.4 2.9-2.7 4.3-1.3 1.4-2.2 2.6-5.1 3-3 0.4-5-1.5-5.8-2.4-0.8-0.9-1.2-2.3-1.3-3.4 0-1 0.5-2 0.5-2z"/>
</svg>